<?xml version="1.0" standalone="no"?>
<!DOCTYPE svg PUBLIC "-//W3C//DTD SVG 20010904//EN"
 "http://www.w3.org/TR/2001/REC-SVG-20010904/DTD/svg10.dtd">
<svg version="1.0" xmlns="http://www.w3.org/2000/svg"
 width="50.000000pt" height="50.000000pt" viewBox="0 0 50.000000 50.000000"
 preserveAspectRatio="xMidYMid meet">

<g transform="translate(0.000000,50.000000) scale(0.100000,-0.100000)"
fill="#000000" stroke="none">
<path d="M190 261 l0 -178 35 -10 35 -11 2 157 c2 95 7 156 13 156 6 0 11 -33
13 -72 3 -68 4 -73 28 -79 37 -10 64 20 64 70 0 69 -27 95 -132 127 l-58 17 0
-177z"/>
<path d="M80 187 c-95 -38 -75 -91 33 -85 41 2 53 7 55 22 3 16 -1 17 -37 11
-53 -9 -53 7 -1 28 23 9 40 22 40 31 0 22 -24 20 -90 -7z"/>
<path d="M308 194 c-18 -5 -26 -44 -9 -44 5 0 26 6 48 14 24 8 46 11 54 6 14
-9 13 -10 -73 -41 -29 -10 -38 -19 -38 -36 l0 -22 91 32 c95 32 112 48 86 74
-15 15 -125 27 -159 17z"/>
</g>
</svg>
