<?xml version="1.0" standalone="no"?>
<!DOCTYPE svg PUBLIC "-//W3C//DTD SVG 20010904//EN"
 "http://www.w3.org/TR/2001/REC-SVG-20010904/DTD/svg10.dtd">
<svg version="1.0" xmlns="http://www.w3.org/2000/svg"
 width="50.000000pt" height="50.000000pt" viewBox="0 0 50.000000 50.000000"
 preserveAspectRatio="xMidYMid meet">

<g transform="translate(0.000000,50.000000) scale(0.100000,-0.100000)"
fill="#000000" stroke="none">
<path d="M177 486 c-46 -17 -57 -26 -32 -26 10 0 38 -11 62 -25 l43 -26 43 26
c24 14 52 25 63 25 15 1 13 4 -9 16 -41 22 -125 27 -170 10z"/>
<path d="M63 408 c-58 -64 -76 -185 -39 -258 48 -93 128 -144 226 -144 98 0
178 51 226 144 24 47 24 153 0 200 -24 47 -56 80 -76 80 -18 0 -100 -50 -100
-62 0 -4 18 -28 40 -53 23 -26 51 -68 65 -94 22 -45 43 -121 32 -121 -3 0 -17
19 -31 43 -14 23 -54 74 -91 112 l-65 70 -63 -67 c-34 -37 -74 -85 -87 -107
-32 -52 -40 -52 -29 0 12 54 32 92 85 161 24 31 44 58 44 61 0 11 -78 57 -96
57 -11 0 -30 -10 -41 -22z"/>
</g>
</svg>
